<svg width="282" height="95" viewBox="0 0 282 95" fill="none" xmlns="http://www.w3.org/2000/svg">
<path d="M118.336 34.8397C120.536 34.8397 122.49 35.3284 124.201 36.3058C125.911 37.2483 127.238 38.662 128.18 40.547C129.158 42.3971 129.646 44.6311 129.646 47.2491V64.2663H122.316V48.244C122.316 45.9401 121.74 44.1773 120.588 42.9556C119.436 41.6989 117.865 41.0706 115.876 41.0706C113.851 41.0706 112.245 41.6989 111.058 42.9556C109.906 44.1773 109.33 45.9401 109.33 48.244V64.2663H102V25.5195H109.33V38.8715C110.273 37.6148 111.53 36.6374 113.1 35.9393C114.671 35.2062 116.417 34.8397 118.336 34.8397Z" fill="#0D0A00"/>
<path d="M163.583 49.1341C163.583 50.1813 163.513 51.1238 163.373 51.9616H142.167C142.342 54.056 143.075 55.6966 144.367 56.8835C145.658 58.0703 147.246 58.6637 149.131 58.6637C151.854 58.6637 153.792 57.4944 154.943 55.1556H162.85C162.012 57.9481 160.406 60.252 158.033 62.0672C155.659 63.8474 152.744 64.7376 149.289 64.7376C146.496 64.7376 143.983 64.1267 141.749 62.9049C139.549 61.6483 137.822 59.8855 136.565 57.6165C135.343 55.3476 134.732 52.7295 134.732 49.7625C134.732 46.7604 135.343 44.125 136.565 41.856C137.787 39.5871 139.497 37.8417 141.696 36.62C143.895 35.3982 146.426 34.7873 149.289 34.7873C152.046 34.7873 154.507 35.3808 156.671 36.5676C158.87 37.7544 160.563 39.4474 161.75 41.6466C162.972 43.8108 163.583 46.3067 163.583 49.1341ZM155.991 47.0397C155.956 45.1547 155.275 43.6537 153.949 42.5367C152.622 41.3848 150.999 40.8088 149.079 40.8088C147.264 40.8088 145.728 41.3673 144.471 42.4843C143.25 43.5665 142.499 45.0849 142.22 47.0397H155.991Z" fill="#0D0A00"/>
<path d="M167.049 49.6577C167.049 46.7255 167.625 44.125 168.776 41.856C169.963 39.5871 171.552 37.8417 173.541 36.62C175.566 35.3982 177.817 34.7873 180.296 34.7873C182.46 34.7873 184.345 35.2237 185.951 36.0964C187.591 36.969 188.9 38.0686 189.878 39.3951V35.2586H197.261V64.2663H189.878V60.0251C188.935 61.3865 187.626 62.521 185.951 63.4285C184.31 64.3012 182.408 64.7376 180.243 64.7376C177.8 64.7376 175.566 64.1092 173.541 62.8526C171.552 61.5959 169.963 59.8331 168.776 57.5642C167.625 55.2603 167.049 52.6248 167.049 49.6577ZM189.878 49.7625C189.878 47.9822 189.529 46.4637 188.831 45.2071C188.132 43.9155 187.19 42.9381 186.003 42.2749C184.816 41.5768 183.542 41.2277 182.181 41.2277C180.819 41.2277 179.563 41.5593 178.411 42.2225C177.259 42.8858 176.316 43.8632 175.583 45.1547C174.885 46.4114 174.536 47.9124 174.536 49.6577C174.536 51.4031 174.885 52.939 175.583 54.2655C176.316 55.557 177.259 56.5519 178.411 57.25C179.598 57.9481 180.854 58.2972 182.181 58.2972C183.542 58.2972 184.816 57.9656 186.003 57.3024C187.19 56.6042 188.132 55.6268 188.831 54.3702C189.529 53.0786 189.878 51.5427 189.878 49.7625Z" fill="#0D0A00"/>
<path d="M211.751 25.5195V64.2663H204.42V25.5195H211.751Z" fill="#0D0A00"/>
<path d="M227.528 41.28V55.3127C227.528 56.2901 227.755 57.0057 228.208 57.4594C228.697 57.8783 229.5 58.0878 230.617 58.0878H234.021V64.2663H229.413C223.234 64.2663 220.145 61.2643 220.145 55.2603V41.28H216.689V35.2586H220.145V28.0852H227.528V35.2586H234.021V41.28H227.528Z" fill="#0D0A00"/>
<path d="M255.629 34.8397C257.829 34.8397 259.783 35.3284 261.494 36.3058C263.204 37.2483 264.531 38.662 265.473 40.547C266.451 42.3971 266.939 44.6311 266.939 47.2491V64.2663H259.609V48.244C259.609 45.9401 259.033 44.1773 257.881 42.9556C256.729 41.6989 255.158 41.0706 253.169 41.0706C251.144 41.0706 249.538 41.6989 248.351 42.9556C247.199 44.1773 246.623 45.9401 246.623 48.244V64.2663H239.293V25.5195H246.623V38.8715C247.566 37.6148 248.823 36.6374 250.393 35.9393C251.964 35.2062 253.71 34.8397 255.629 34.8397Z" fill="#0D0A00"/>
<path d="M0 24.9966C0 11.7426 10.7445 0.998047 23.9986 0.998047H65.4507C78.7047 0.998047 89.4492 11.7426 89.4492 24.9966V70.8121C89.4492 84.0661 78.7047 94.8106 65.4507 94.8106H23.9986C10.7445 94.8106 0 84.0661 0 70.8121V24.9966Z" fill="#CB9A39"/>
<path d="M40.5712 36.1875V44.587H51.8505V49.9147H40.5712V58.7942H53.2904V64.2658H33.8516V30.7158H53.2904V36.1875H40.5712Z" fill="white"/>
</svg>
